<svg height="512pt" viewBox="-8 0 512 512" width="512pt" xmlns="http://www.w3.org/2000/svg"><path d="m480 4h-104v504h104c8.878906 0 16-7.128906 16-16v-40h-80v-104h-8v-184h8v-104h80v-40c0-8.886719-7.121094-16-16-16zm0 0" fill="#ed5565"/><path d="m420.007812 164c2.199219 0 4 1.800781 4 4v176c0 2.199219-1.800781 4-4 4-2.199218 0-5.800781 0-8 0h-16.007812c-2.199219 0-4-1.800781-4-4v-176c0-2.199219 1.800781-4 4-4h16.007812zm0 0" fill="#da4453"/><path d="m16 4h124.488281l-9.769531 7.03125c-1.757812 2.480469-2.71875 5.609375-2.71875 8.96875v472c0 3.359375 1.039062 6.390625 2.71875 8.953125l9.769531 7.046875h-124.488281c-8.878906 0-16-7.128906-16-16v-472c0-8.886719 7.121094-16 16-16zm0 0" fill="#da4453"/><path d="m248 4h128v504h-128zm0 0" fill="#545c66"/><path d="m492 60c2.199219 0 4 1.800781 4 4v384c0 2.199219-1.800781 4-4 4h-72c-2.199219 0-4-1.800781-4-4v-96c0-2.199219 0-5.800781 0-8v-176c0-2.199219 0-5.800781 0-8v-96c0-2.199219 1.800781-4 4-4zm0 0" fill="#e6e9ed"/><path d="m128 316v-296c0-3.359375.960938-6.488281 2.71875-8.96875 2.882812-4.230469 7.761719-7.03125 13.28125-7.03125h104v504h-104c-5.519531 0-10.398438-2.800781-13.28125-7.046875-1.679688-2.5625-2.71875-5.59375-2.71875-8.953125zm0 0" fill="#ed5565"/><path d="m0 436h128v24h-128zm0 0" fill="#ccd1d9"/><path d="m0 460h72.007812v24h-72.007812zm0 0" fill="#e6e9ed"/><g fill="#fff"><path d="m480.238281 104c-2.207031 0-4.039062-1.792969-4.039062-4s1.753906-4 3.960937-4h.085938c2.203125 0 4 1.792969 4 4s-1.796875 4-4.007813 4zm0 0"/><path d="m464.238281 120c-2.207031 0-4.039062-1.792969-4.039062-4s1.753906-4 3.960937-4h.085938c2.203125 0 4 1.792969 4 4s-1.796875 4-4.007813 4zm0 0"/><path d="m448.238281 136c-2.207031 0-4.039062-1.792969-4.039062-4s1.753906-4 3.960937-4h.085938c2.203125 0 4 1.792969 4 4s-1.796875 4-4.007813 4zm0 0"/><path d="m432.238281 152c-2.207031 0-4.039062-1.792969-4.039062-4s1.753906-4 3.960937-4h.085938c2.203125 0 4 1.792969 4 4s-1.796875 4-4.007813 4zm0 0"/><path d="m480.238281 128c-2.207031 0-4.039062-1.792969-4.039062-4s1.753906-4 3.960937-4h.085938c2.203125 0 4 1.792969 4 4s-1.796875 4-4.007813 4zm0 0"/><path d="m464.238281 144c-2.207031 0-4.039062-1.792969-4.039062-4s1.753906-4 3.960937-4h.085938c2.203125 0 4 1.792969 4 4s-1.796875 4-4.007813 4zm0 0"/><path d="m448.238281 160c-2.207031 0-4.039062-1.792969-4.039062-4s1.753906-4 3.960937-4h.085938c2.203125 0 4 1.792969 4 4s-1.796875 4-4.007813 4zm0 0"/><path d="m432.238281 176c-2.207031 0-4.039062-1.792969-4.039062-4s1.753906-4 3.960937-4h.085938c2.203125 0 4 1.792969 4 4s-1.796875 4-4.007813 4zm0 0"/><path d="m480.238281 152c-2.207031 0-4.039062-1.792969-4.039062-4s1.753906-4 3.960937-4h.085938c2.203125 0 4 1.792969 4 4s-1.796875 4-4.007813 4zm0 0"/><path d="m464.238281 168c-2.207031 0-4.039062-1.792969-4.039062-4s1.753906-4 3.960937-4h.085938c2.203125 0 4 1.792969 4 4s-1.796875 4-4.007813 4zm0 0"/><path d="m448.238281 184c-2.207031 0-4.039062-1.792969-4.039062-4s1.753906-4 3.960937-4h.085938c2.203125 0 4 1.792969 4 4s-1.796875 4-4.007813 4zm0 0"/><path d="m432.238281 200c-2.207031 0-4.039062-1.792969-4.039062-4s1.753906-4 3.960937-4h.085938c2.203125 0 4 1.792969 4 4s-1.796875 4-4.007813 4zm0 0"/><path d="m480.238281 176c-2.207031 0-4.039062-1.792969-4.039062-4s1.753906-4 3.960937-4h.085938c2.203125 0 4 1.792969 4 4s-1.796875 4-4.007813 4zm0 0"/><path d="m464.238281 192c-2.207031 0-4.039062-1.792969-4.039062-4s1.753906-4 3.960937-4h.085938c2.203125 0 4 1.792969 4 4s-1.796875 4-4.007813 4zm0 0"/><path d="m448.238281 208c-2.207031 0-4.039062-1.792969-4.039062-4s1.753906-4 3.960937-4h.085938c2.203125 0 4 1.792969 4 4s-1.796875 4-4.007813 4zm0 0"/><path d="m432.238281 224c-2.207031 0-4.039062-1.792969-4.039062-4s1.753906-4 3.960937-4h.085938c2.203125 0 4 1.792969 4 4s-1.796875 4-4.007813 4zm0 0"/><path d="m480.238281 200c-2.207031 0-4.039062-1.792969-4.039062-4s1.753906-4 3.960937-4h.085938c2.203125 0 4 1.792969 4 4s-1.796875 4-4.007813 4zm0 0"/><path d="m464.238281 216c-2.207031 0-4.039062-1.792969-4.039062-4s1.753906-4 3.960937-4h.085938c2.203125 0 4 1.792969 4 4s-1.796875 4-4.007813 4zm0 0"/><path d="m448.238281 232c-2.207031 0-4.039062-1.792969-4.039062-4s1.753906-4 3.960937-4h.085938c2.203125 0 4 1.792969 4 4s-1.796875 4-4.007813 4zm0 0"/><path d="m432.238281 248c-2.207031 0-4.039062-1.792969-4.039062-4s1.753906-4 3.960937-4h.085938c2.203125 0 4 1.792969 4 4s-1.796875 4-4.007813 4zm0 0"/><path d="m480.238281 224c-2.207031 0-4.039062-1.792969-4.039062-4s1.753906-4 3.960937-4h.085938c2.203125 0 4 1.792969 4 4s-1.796875 4-4.007813 4zm0 0"/><path d="m464.238281 240c-2.207031 0-4.039062-1.792969-4.039062-4s1.753906-4 3.960937-4h.085938c2.203125 0 4 1.792969 4 4s-1.796875 4-4.007813 4zm0 0"/><path d="m448.238281 256c-2.207031 0-4.039062-1.792969-4.039062-4s1.753906-4 3.960937-4h.085938c2.203125 0 4 1.792969 4 4s-1.796875 4-4.007813 4zm0 0"/><path d="m432.238281 272c-2.207031 0-4.039062-1.792969-4.039062-4s1.753906-4 3.960937-4h.085938c2.203125 0 4 1.792969 4 4s-1.796875 4-4.007813 4zm0 0"/><path d="m480.238281 248c-2.207031 0-4.039062-1.792969-4.039062-4s1.753906-4 3.960937-4h.085938c2.203125 0 4 1.792969 4 4s-1.796875 4-4.007813 4zm0 0"/><path d="m464.238281 264c-2.207031 0-4.039062-1.792969-4.039062-4s1.753906-4 3.960937-4h.085938c2.203125 0 4 1.792969 4 4s-1.796875 4-4.007813 4zm0 0"/><path d="m448.238281 280c-2.207031 0-4.039062-1.792969-4.039062-4s1.753906-4 3.960937-4h.085938c2.203125 0 4 1.792969 4 4s-1.796875 4-4.007813 4zm0 0"/><path d="m432.238281 296c-2.207031 0-4.039062-1.792969-4.039062-4s1.753906-4 3.960937-4h.085938c2.203125 0 4 1.792969 4 4s-1.796875 4-4.007813 4zm0 0"/><path d="m480.238281 272c-2.207031 0-4.039062-1.792969-4.039062-4s1.753906-4 3.960937-4h.085938c2.203125 0 4 1.792969 4 4s-1.796875 4-4.007813 4zm0 0"/><path d="m464.238281 288c-2.207031 0-4.039062-1.792969-4.039062-4s1.753906-4 3.960937-4h.085938c2.203125 0 4 1.792969 4 4s-1.796875 4-4.007813 4zm0 0"/><path d="m448.238281 304c-2.207031 0-4.039062-1.792969-4.039062-4s1.753906-4 3.960937-4h.085938c2.203125 0 4 1.792969 4 4s-1.796875 4-4.007813 4zm0 0"/><path d="m432.238281 320c-2.207031 0-4.039062-1.792969-4.039062-4s1.753906-4 3.960937-4h.085938c2.203125 0 4 1.792969 4 4s-1.796875 4-4.007813 4zm0 0"/><path d="m480.238281 296c-2.207031 0-4.039062-1.792969-4.039062-4s1.753906-4 3.960937-4h.085938c2.203125 0 4 1.792969 4 4s-1.796875 4-4.007813 4zm0 0"/><path d="m464.238281 312c-2.207031 0-4.039062-1.792969-4.039062-4s1.753906-4 3.960937-4h.085938c2.203125 0 4 1.792969 4 4s-1.796875 4-4.007813 4zm0 0"/><path d="m448.238281 328c-2.207031 0-4.039062-1.792969-4.039062-4s1.753906-4 3.960937-4h.085938c2.203125 0 4 1.792969 4 4s-1.796875 4-4.007813 4zm0 0"/><path d="m432.238281 344c-2.207031 0-4.039062-1.792969-4.039062-4s1.753906-4 3.960937-4h.085938c2.203125 0 4 1.792969 4 4s-1.796875 4-4.007813 4zm0 0"/><path d="m480.238281 320c-2.207031 0-4.039062-1.792969-4.039062-4s1.753906-4 3.960937-4h.085938c2.203125 0 4 1.792969 4 4s-1.796875 4-4.007813 4zm0 0"/><path d="m464.238281 336c-2.207031 0-4.039062-1.792969-4.039062-4s1.753906-4 3.960937-4h.085938c2.203125 0 4 1.792969 4 4s-1.796875 4-4.007813 4zm0 0"/><path d="m448.238281 352c-2.207031 0-4.039062-1.792969-4.039062-4s1.753906-4 3.960937-4h.085938c2.203125 0 4 1.792969 4 4s-1.796875 4-4.007813 4zm0 0"/><path d="m432.238281 368c-2.207031 0-4.039062-1.792969-4.039062-4s1.753906-4 3.960937-4h.085938c2.203125 0 4 1.792969 4 4s-1.796875 4-4.007813 4zm0 0"/><path d="m480.238281 344c-2.207031 0-4.039062-1.792969-4.039062-4s1.753906-4 3.960937-4h.085938c2.203125 0 4 1.792969 4 4s-1.796875 4-4.007813 4zm0 0"/><path d="m464.238281 360c-2.207031 0-4.039062-1.792969-4.039062-4s1.753906-4 3.960937-4h.085938c2.203125 0 4 1.792969 4 4s-1.796875 4-4.007813 4zm0 0"/><path d="m448.238281 376c-2.207031 0-4.039062-1.792969-4.039062-4s1.753906-4 3.960937-4h.085938c2.203125 0 4 1.792969 4 4s-1.796875 4-4.007813 4zm0 0"/><path d="m432.238281 392c-2.207031 0-4.039062-1.792969-4.039062-4s1.753906-4 3.960937-4h.085938c2.203125 0 4 1.792969 4 4s-1.796875 4-4.007813 4zm0 0"/><path d="m480.238281 368c-2.207031 0-4.039062-1.792969-4.039062-4s1.753906-4 3.960937-4h.085938c2.203125 0 4 1.792969 4 4s-1.796875 4-4.007813 4zm0 0"/><path d="m464.238281 384c-2.207031 0-4.039062-1.792969-4.039062-4s1.753906-4 3.960937-4h.085938c2.203125 0 4 1.792969 4 4s-1.796875 4-4.007813 4zm0 0"/><path d="m448.238281 400c-2.207031 0-4.039062-1.792969-4.039062-4s1.753906-4 3.960937-4h.085938c2.203125 0 4 1.792969 4 4s-1.796875 4-4.007813 4zm0 0"/><path d="m432.238281 416c-2.207031 0-4.039062-1.792969-4.039062-4s1.753906-4 3.960937-4h.085938c2.203125 0 4 1.792969 4 4s-1.796875 4-4.007813 4zm0 0"/></g><path d="m360 512c-2.207031 0-4-1.792969-4-4v-504c0-2.207031 1.792969-4 4-4s4 1.792969 4 4v504c0 2.207031-1.792969 4-4 4zm0 0" fill="#656d78"/><path d="m344 512c-2.207031 0-4-1.792969-4-4v-504c0-2.207031 1.792969-4 4-4s4 1.792969 4 4v504c0 2.207031-1.792969 4-4 4zm0 0" fill="#656d78"/><path d="m328 512c-2.207031 0-4-1.792969-4-4v-504c0-2.207031 1.792969-4 4-4s4 1.792969 4 4v504c0 2.207031-1.792969 4-4 4zm0 0" fill="#656d78"/><path d="m312 512c-2.207031 0-4-1.792969-4-4v-504c0-2.207031 1.792969-4 4-4s4 1.792969 4 4v504c0 2.207031-1.792969 4-4 4zm0 0" fill="#656d78"/><path d="m296 512c-2.207031 0-4-1.792969-4-4v-504c0-2.207031 1.792969-4 4-4s4 1.792969 4 4v504c0 2.207031-1.792969 4-4 4zm0 0" fill="#656d78"/><path d="m280 512c-2.207031 0-4-1.792969-4-4v-504c0-2.207031 1.792969-4 4-4s4 1.792969 4 4v504c0 2.207031-1.792969 4-4 4zm0 0" fill="#656d78"/><path d="m264 512c-2.207031 0-4-1.792969-4-4v-504c0-2.207031 1.792969-4 4-4s4 1.792969 4 4v504c0 2.207031-1.792969 4-4 4zm0 0" fill="#656d78"/><path d="m143.96875 496c-2.207031 0-4-1.792969-4-4v-472c0-2.207031 1.792969-4 4-4s4 1.792969 4 4v472c0 2.207031-1.792969 4-4 4zm0 0" fill="#da4453"/><path d="m124 460h-56c-2.199219 0-4 1.800781-4 4v16c0 2.199219 1.800781 4 4 4h60v-24zm0 0" fill="#656d78"/><path d="m0 388h128v24h-128zm0 0" fill="#ccd1d9"/><path d="m0 412h72.007812v24h-72.007812zm0 0" fill="#e6e9ed"/><path d="m124 412h-56c-2.199219 0-4 1.800781-4 4v16c0 2.199219 1.800781 4 4 4h60v-24zm0 0" fill="#656d78"/><path d="m0 340h128v24h-128zm0 0" fill="#ccd1d9"/><path d="m0 364h72.007812v24h-72.007812zm0 0" fill="#e6e9ed"/><path d="m124 364h-56c-2.199219 0-4 1.800781-4 4v16c0 2.199219 1.800781 4 4 4h60v-24zm0 0" fill="#656d78"/><path d="m0 292h128v24h-128zm0 0" fill="#ccd1d9"/><path d="m0 316h72.007812v24h-72.007812zm0 0" fill="#e6e9ed"/><path d="m124 316h-56c-2.199219 0-4 1.800781-4 4v16c0 2.199219 1.800781 4 4 4h60v-24zm0 0" fill="#656d78"/><path d="m0 244h128v24h-128zm0 0" fill="#ccd1d9"/><path d="m0 268h72.007812v24h-72.007812zm0 0" fill="#e6e9ed"/><path d="m124 268h-56c-2.199219 0-4 1.800781-4 4v16c0 2.199219 1.800781 4 4 4h60v-24zm0 0" fill="#656d78"/><path d="m0 196h128v24h-128zm0 0" fill="#ccd1d9"/><path d="m0 220h72.007812v24h-72.007812zm0 0" fill="#e6e9ed"/><path d="m124 220h-56c-2.199219 0-4 1.800781-4 4v16c0 2.199219 1.800781 4 4 4h60v-24zm0 0" fill="#656d78"/><path d="m0 148h128v24h-128zm0 0" fill="#ccd1d9"/><path d="m0 172h72.007812v24h-72.007812zm0 0" fill="#e6e9ed"/><path d="m124 172h-56c-2.199219 0-4 1.800781-4 4v16c0 2.199219 1.800781 4 4 4h60v-24zm0 0" fill="#656d78"/><path d="m0 100h128v24h-128zm0 0" fill="#ccd1d9"/><path d="m0 124h72.007812v24h-72.007812zm0 0" fill="#e6e9ed"/><path d="m124 124h-56c-2.199219 0-4 1.800781-4 4v16c0 2.199219 1.800781 4 4 4h60v-24zm0 0" fill="#656d78"/><path d="m0 52h128v24h-128zm0 0" fill="#ccd1d9"/><path d="m0 76h72.007812v24h-72.007812zm0 0" fill="#e6e9ed"/><path d="m124 76h-56c-2.199219 0-4 1.800781-4 4v16c0 2.199219 1.800781 4 4 4h60v-24zm0 0" fill="#656d78"/><path d="m0 28h72.007812v24h-72.007812zm0 0" fill="#e6e9ed"/><path d="m124 28h-56c-2.199219 0-4 1.800781-4 4v16c0 2.199219 1.800781 4 4 4h60v-24zm0 0" fill="#656d78"/></svg>