<?xml version="1.0" encoding="iso-8859-1"?>
<!-- Generator: Adobe Illustrator 19.0.0, SVG Export Plug-In . SVG Version: 6.00 Build 0)  -->
<svg xmlns="http://www.w3.org/2000/svg" xmlns:xlink="http://www.w3.org/1999/xlink" version="1.1" id="Layer_1" x="0px" y="0px" viewBox="0 0 512 512" style="enable-background:new 0 0 512 512;" xml:space="preserve" width="512" height="512">
<g id="XMLID_906_">
	<path id="XMLID_2061_" style="fill:#93E7F8;" d="M453.197,108.909c12.608-6.056,21.313-18.945,21.313-33.868l0,0   c0-20.739-16.813-37.552-37.552-37.552l0,0c-14.923,0-27.811,8.705-33.868,21.313C422.104,73.007,438.993,89.896,453.197,108.909z"/>
	<path id="XMLID_2060_" style="fill:#93E7F8;" d="M58.803,108.909c-12.608-6.056-21.313-18.945-21.313-33.868l0,0   c0-20.739,16.813-37.552,37.552-37.552l0,0c14.923,0,27.811,8.705,33.868,21.313C89.896,73.007,73.007,89.896,58.803,108.909z"/>
	<path id="XMLID_2057_" style="fill:#93E7F8;" d="M453.197,403.091c12.608,6.056,21.313,18.945,21.313,33.868l0,0   c0,20.739-16.813,37.552-37.552,37.552l0,0c-14.923,0-27.811-8.705-33.868-21.313C422.104,438.993,438.993,422.104,453.197,403.091   z"/>
	<circle id="XMLID_1124_" style="fill:#FFBE52;" cx="256" cy="256" r="246"/>
	<circle id="XMLID_1121_" style="fill:#FFFFFF;" cx="256" cy="256" r="198"/>
	<g id="XMLID_2045_">
		<path id="XMLID_2044_" style="fill:#009FFF;" d="M141.353,339.628L16.424,464.557c-8.566,8.566-8.566,22.453,0,31.019l0,0    c8.566,8.566,22.453,8.566,31.019,0l124.929-124.929L141.353,339.628z"/>
		<circle id="XMLID_2043_" style="fill:#C5E3FF;" cx="190.628" cy="321.372" r="49.37"/>
	</g>
	<g id="XMLID_923_">
		<path id="XMLID_1100_" style="fill:#009FFF;" d="M370.647,255.462l124.929,124.929c8.566,8.566,8.566,22.453,0,31.019l0,0    c-8.566,8.566-22.453,8.566-31.019,0L339.628,286.481L370.647,255.462z"/>
		<circle id="XMLID_968_" style="fill:#C5E3FF;" cx="321.372" cy="237.206" r="49.37"/>
	</g>
	<g id="XMLID_596_">
		<path id="XMLID_599_" d="M489.778,360.452C504.521,327.546,512,292.441,512,256c0-52.321-15.606-102.236-44.589-144.459    c10.639-8.928,17.099-22.304,17.099-36.5c0-26.22-21.332-47.552-47.552-47.552c-14.195,0-27.571,6.461-36.5,17.1    C358.236,15.607,308.321,0,256,0S153.764,15.607,111.541,44.589c-8.929-10.639-22.305-17.1-36.5-17.1    c-26.22,0-47.552,21.332-47.552,47.552c0,14.195,6.461,27.571,17.099,36.5C15.606,153.764,0,203.679,0,256    c0,56.829,19.069,112.304,53.816,157.023L9.354,457.485C3.322,463.517,0,471.536,0,480.066c0,8.529,3.322,16.549,9.353,22.581    c6.226,6.226,14.402,9.339,22.581,9.338c8.177-0.001,16.356-3.113,22.581-9.338l44.464-44.465    C143.719,492.944,199.113,512,256,512c40.942,0,80.064-9.378,116.28-27.874c9.718-4.963,19.109-10.589,28.13-16.774    c8.929,10.674,22.327,17.159,36.549,17.159c26.22,0,47.552-21.332,47.552-47.552c0-3.161-0.327-6.279-0.943-9.319    c7.205-0.781,13.881-3.961,19.079-9.158C508.678,412.45,512,404.431,512,395.9c0-8.529-3.322-16.549-9.353-22.58L489.778,360.452z     M436.959,47.489c15.192,0,27.552,12.36,27.552,27.552c0,7.85-3.413,15.264-9.083,20.423c-5.735-7.097-11.865-13.94-18.408-20.483    c-6.543-6.543-13.386-12.673-20.483-18.408C421.695,50.903,429.11,47.489,436.959,47.489z M47.489,75.041    c0-15.192,12.36-27.552,27.552-27.552c7.849,0,15.264,3.413,20.423,9.084c-7.097,5.735-13.94,11.865-20.483,18.408    c-6.543,6.542-12.673,13.386-18.408,20.483C50.903,90.304,47.489,82.89,47.489,75.041z M20,256C20,125.869,125.869,20,256,20    s236,105.869,236,236c0,31.007-5.865,60.959-17.445,89.229l-21.754-21.754C460.23,301.811,464,279.132,464,256    c0-114.691-93.309-208-208-208S48,141.309,48,256c0,44.688,13.842,86.982,40.081,122.757l-20.005,20.005    C37.018,357.891,20,307.551,20,256z M40.373,488.505c-4.654,4.654-12.224,4.652-16.877,0c-2.254-2.254-3.496-5.251-3.496-8.438    s1.241-6.185,3.496-8.438l117.591-117.591c4.431,6.697,10.179,12.445,16.876,16.876L40.373,488.505z M151.258,321.372    c0-21.709,17.661-39.37,39.37-39.37c21.708,0,39.37,17.661,39.37,39.37c0,21.708-17.661,39.369-39.37,39.369    C168.919,360.741,151.258,343.08,151.258,321.372z M256,492c-51.604,0-101.876-17.003-142.764-48.074l20.019-20.019    c24.035,17.576,51.805,29.932,80.868,35.874c0.676,0.139,1.349,0.205,2.013,0.205c4.652,0,8.819-3.264,9.787-7.999    c1.106-5.411-2.383-10.694-7.794-11.8c-25.246-5.162-49.426-15.671-70.56-30.594l30.256-30.257    c4.126,0.911,8.407,1.406,12.803,1.406c32.736,0,59.37-26.633,59.37-59.369s-26.633-59.37-59.37-59.37    c-32.737,0-59.37,26.634-59.37,59.37c0,4.396,0.495,8.676,1.406,12.802l-30.258,30.258C79.871,332.643,68,295.35,68,256    c0-103.664,84.336-188,188-188s188,84.336,188,188c0,17.57-2.407,34.843-7.152,51.521l-57.512-57.512    c0.911-4.126,1.406-8.407,1.406-12.803c0-32.737-26.633-59.37-59.37-59.37c-32.736,0-59.37,26.633-59.37,59.37    s26.633,59.37,59.37,59.37c4.396,0,8.677-0.495,12.803-1.406l72.827,72.827c-27.647,37.272-67.477,62.792-112.89,72.14    c-5.409,1.113-8.892,6.401-7.778,11.811c0.973,4.73,5.137,7.986,9.784,7.986c0.668,0,1.347-0.067,2.026-0.207    c49.296-10.147,92.647-37.495,123.147-77.441l19.944,19.944c-12.685,16.071-27.122,30.195-42.942,42.208    c-0.898,0.492-1.692,1.101-2.374,1.804C355.956,475.795,307.416,492,256,492z M321.372,276.576    c-21.708,0-39.37-17.661-39.37-39.37c0-21.709,17.661-39.37,39.37-39.37c21.709,0,39.37,17.661,39.37,39.37    C360.742,258.915,343.081,276.576,321.372,276.576z M436.959,464.511c-7.869,0-15.301-3.429-20.462-9.125    c14.298-11.528,27.385-24.578,38.913-38.867c5.681,5.16,9.101,12.582,9.101,20.44    C464.511,452.151,452.151,464.511,436.959,464.511z M488.504,404.34c-2.254,2.254-5.25,3.495-8.438,3.495    s-6.185-1.241-8.438-3.496L354.037,286.748c6.698-4.431,12.446-10.179,16.877-16.877l117.591,117.592    c2.254,2.254,3.495,5.251,3.495,8.438C492,399.088,490.759,402.085,488.504,404.34z"/>
		<path id="XMLID_1057_" d="M213.625,105.938c-32.048,9.033-60.928,28.626-81.32,55.17c-21.064,27.419-32.198,60.232-32.198,94.892    c0,5.522,4.477,10,10,10s10-4.478,10-10c0-60.6,40.687-114.392,98.943-130.812c5.316-1.498,8.41-7.022,6.912-12.338    C224.464,107.534,218.94,104.441,213.625,105.938z"/>
		<path id="XMLID_1064_" d="M263.07,117.18c1.86-1.86,2.93-4.44,2.93-7.07s-1.07-5.21-2.93-7.07c-1.86-1.87-4.44-2.93-7.07-2.93    c-2.63,0-5.21,1.06-7.07,2.93c-1.86,1.86-2.93,4.44-2.93,7.07s1.07,5.21,2.93,7.07c1.86,1.86,4.44,2.93,7.07,2.93    C258.63,120.11,261.21,119.04,263.07,117.18z"/>
		<path id="XMLID_1119_" d="M256,444c-2.63,0-5.21,1.069-7.07,2.93c-1.86,1.86-2.93,4.44-2.93,7.07s1.07,5.21,2.93,7.069    c1.86,1.86,4.44,2.931,7.07,2.931c2.63,0,5.21-1.07,7.07-2.931c1.86-1.859,2.93-4.439,2.93-7.069s-1.07-5.21-2.93-7.07    S258.63,444,256,444z"/>
	</g>
</g>















</svg>
