<svg height="512pt" viewBox="0 -44 512.00398 512" width="512pt" xmlns="http://www.w3.org/2000/svg"><path d="m100.003906 423.949219c-2.210937 0-4-1.792969-4-4v-80.027344c0-2.207031 1.789063-4 4-4 2.207032 0 4 1.792969 4 4v80.027344c0 2.207031-1.792968 4-4 4zm0 0" fill="#ccd1d9"/><path d="m24.003906 423.949219c-2.210937 0-4-1.792969-4-4v-40c0-2.210938 1.789063-4 4-4h4v-44.019531c0-2.207032 1.789063-4 4-4 2.207032 0 4 1.792968 4 4v48.019531c0 2.207031-1.792968 4-4 4h-4v36c0 2.207031-1.792968 4-4 4zm0 0" fill="#ccd1d9"/><path d="m284.003906 95.949219h-16c-2.210937 0-4-1.792969-4-4 0-2.210938 1.789063-4 4-4h16c2.207032 0 4 1.789062 4 4 0 2.207031-1.792968 4-4 4zm0 0" fill="#aab2bd"/><path d="m284.003906 119.949219h-16c-2.210937 0-4-1.792969-4-4 0-2.210938 1.789063-4 4-4h16c2.207032 0 4 1.789062 4 4 0 2.207031-1.792968 4-4 4zm0 0" fill="#aab2bd"/><path d="m244.003906 95.949219h-16c-2.210937 0-4-1.792969-4-4 0-2.210938 1.789063-4 4-4h16c2.207032 0 4 1.789062 4 4 0 2.207031-1.792968 4-4 4zm0 0" fill="#aab2bd"/><path d="m244.003906 119.949219h-16c-2.210937 0-4-1.792969-4-4 0-2.210938 1.789063-4 4-4h16c2.207032 0 4 1.789062 4 4 0 2.207031-1.792968 4-4 4zm0 0" fill="#aab2bd"/><path d="m256.003906 175.949219c-2.210937 0-4-1.792969-4-4v-40c0-2.210938 1.789063-4 4-4 2.207032 0 4 1.789062 4 4v40c0 2.207031-1.792968 4-4 4zm0 0" fill="#ccd1d9"/><path d="m268.003906 151.949219c-2.210937 0-4-1.792969-4-4v-56c0-2.210938 1.789063-4 4-4 2.207032 0 4 1.789062 4 4v56c0 2.207031-1.792968 4-4 4zm0 0" fill="#ccd1d9"/><path d="m244.003906 151.949219c-2.210937 0-4-1.792969-4-4v-56c0-2.210938 1.789063-4 4-4 2.207032 0 4 1.789062 4 4v56c0 2.207031-1.792968 4-4 4zm0 0" fill="#ccd1d9"/><path d="m268.003906 135.949219h-24c-2.210937 0-4-1.792969-4-4 0-2.210938 1.789063-4 4-4h24c2.207032 0 4 1.789062 4 4 0 2.207031-1.792968 4-4 4zm0 0" fill="#e6e9ed"/><path d="m412.003906 423.949219c-2.210937 0-4-1.792969-4-4v-168.019531c0-2.207032 1.789063-4 4-4 2.207032 0 4 1.792968 4 4v168.019531c0 2.207031-1.792968 4-4 4zm0 0" fill="#ccd1d9"/><path d="m156.011719 423.949219c-.761719 0-1.53125-.21875-2.210938-.671875-1.839843-1.226563-2.34375-3.714844-1.109375-5.546875l32-48.007813c1.214844-1.839844 3.703125-2.335937 5.542969-1.109375 1.839844 1.222657 2.34375 3.710938 1.113281 5.542969l-32 48.007812c-.777344 1.160157-2.050781 1.785157-3.335937 1.785157zm0 0" fill="#ccd1d9"/><path d="m355.992188 423.949219c-1.285157 0-2.558594-.625-3.335938-1.785157l-32-48.007812c-1.230469-1.832031-.734375-4.320312 1.113281-5.542969 1.847657-1.226562 4.320313-.738281 5.542969 1.109375l32 48.007813c1.234375 1.832031.738281 4.320312-1.109375 5.546875-.679687.453125-1.449219.671875-2.210937.671875zm0 0" fill="#ccd1d9"/><path d="m28.003906 195.949219v144c0 2.484375 10.527344 4.8125 27 6.246093 12.324219 1.113282 27.980469 1.753907 45 1.753907 21.511719 0 40.765625-1.035157 54-2.722657 11.167969-1.4375 18-3.199218 18-5.277343v-144zm0 0" fill="#ed5565"/><path d="m100.003906 201.949219c-16.722656 0-32.21875-.609375-44.816406-1.761719-15.394531-1.34375-22.304688-3.160156-24.5625-4.265625 5.082031-2.671875 30.066406-5.972656 69.378906-5.972656 39.324219 0 64.324219 3.308593 69.382813 5.972656-1.417969.699219-5.273438 1.984375-15.632813 3.320313-13.59375 1.722656-33.191406 2.707031-53.75 2.707031zm0 0" fill="#e6e9ed"/><path d="m100.003906 191.949219c29.542969 0 51.40625 1.941406 62.015625 3.972656-2.128906.417969-4.90625.875-8.511719 1.335937-13.515624 1.714844-33.019531 2.691407-53.503906 2.691407-16.65625 0-32.097656-.601563-44.65625-1.753907-7.921875-.695312-13.546875-1.503906-17.378906-2.273437 10.609375-2.03125 32.472656-3.972656 62.035156-3.972656m0-4c-39.785156 0-72 3.589843-72 8 0 2.484375 10.527344 4.796875 27 6.230469 12.324219 1.128906 27.980469 1.769531 45 1.769531 21.511719 0 40.765625-1.050781 54-2.722657 11.167969-1.4375 18-3.199218 18-5.277343 0-4.410157-32.21875-8-72-8zm0 0" fill="#da4453"/><path d="m340.003906 195.949219v48c0 2.484375 10.527344 4.796875 27 6.230469 12.324219 1.128906 27.980469 1.769531 45 1.769531 21.511719 0 40.765625-1.050781 54-2.722657 11.167969-1.4375 18-3.199218 18-5.277343v-48zm0 0" fill="#ed5565"/><path d="m412.003906 201.949219c-16.722656 0-32.21875-.609375-44.816406-1.761719-15.394531-1.34375-22.304688-3.160156-24.5625-4.265625 5.082031-2.671875 30.066406-5.972656 69.378906-5.972656 39.324219 0 64.324219 3.308593 69.382813 5.972656-1.417969.699219-5.273438 1.984375-15.632813 3.320313-13.59375 1.722656-33.191406 2.707031-53.75 2.707031zm0 0" fill="#e6e9ed"/><path d="m412.003906 191.949219c29.542969 0 51.40625 1.941406 62.015625 3.972656-2.128906.417969-4.90625.875-8.511719 1.335937-13.515624 1.714844-33.019531 2.691407-53.503906 2.691407-16.65625 0-32.097656-.601563-44.65625-1.753907-7.921875-.695312-13.546875-1.503906-17.378906-2.273437 10.609375-2.03125 32.472656-3.972656 62.035156-3.972656m0-4c-39.785156 0-72 3.589843-72 8 0 2.484375 10.527344 4.796875 27 6.230469 12.324219 1.128906 27.980469 1.769531 45 1.769531 21.511719 0 40.765625-1.050781 54-2.722657 11.167969-1.4375 18-3.199218 18-5.277343 0-4.410157-32.21875-8-72-8zm0 0" fill="#da4453"/><path d="m363.363281 233.949219c10.558594 18.230469 16.640625 39.4375 16.640625 62 0 22.558593-6.082031 43.765625-16.640625 62-4.402343 7.671875-9.679687 14.871093-15.59375 21.359375-8.558593 9.4375-18.640625 17.589844-29.765625 24-18.234375 10.558594-39.441406 16.640625-62 16.640625-22.5625 0-43.769531-6.082031-62-16.640625-18.800781-10.875-34.488281-26.5625-45.363281-45.359375-2.558594-4.410157-4.871094-8.96875-6.871094-13.691407-6.246093-14.871093-9.765625-31.183593-9.765625-48.308593 0-22.5625 6.078125-43.769531 16.636719-62 7.363281-12.875 17.128906-24.234375 28.488281-33.691407 5.273438-4.308593 10.875-8.230468 16.875-11.671874 18.230469-10.558594 39.4375-16.636719 62-16.636719 22.558594 0 43.765625 6.078125 62 16.636719 18.796875 10.882812 34.484375 26.5625 45.359375 45.363281zm.640625 62c0-59.691407-48.320312-108-108-108-59.683594 0-108 48.308593-108 108 0 59.671875 48.316406 108 108 108 59.679688 0 108-48.328125 108-108zm0 0" fill="#e6e9ed"/><path d="m256.003906 179.949219c64.101563 0 116 51.886719 116 116 0 64.09375-51.898437 116-116 116-64.105468 0-116-51.90625-116-116 0-64.113281 51.894532-116 116-116zm0 0" fill="#656d78"/><path d="m4.003906 423.949219c-2.210937 0-3.99999975-1.792969-3.99999975-4v-320c0-2.210938 1.78906275-4 3.99999975-4 2.207032 0 4 1.789062 4 4v320c0 2.207031-1.792968 4-4 4zm0 0" fill="#ccd1d9"/><path d="m4.003906 103.949219c-1.363281 0-2.683594-.699219-3.433594-1.945313-1.136718-1.886718-.5195308-4.351562 1.367188-5.488281l80-48c1.898438-1.152344 4.351562-.511719 5.496094 1.375 1.136718 1.890625.519531 4.351563-1.367188 5.488281l-80 48c-.648437.390625-1.359375.570313-2.0625.570313zm0 0" fill="#ccd1d9"/><path d="m84.003906 55.949219c-2.210937 0-4-1.792969-4-4v-24.007813c0-2.210937 1.789063-4 4-4 2.207032 0 4 1.789063 4 4v24.007813c0 2.207031-1.792968 4-4 4zm0 0" fill="#ccd1d9"/><path d="m167.890625 28.515625c.023437-.191406.113281-.367187.113281-.566406 0-.082031-.042968-.144531-.050781-.210938-.015625-.277343-.085937-.542969-.160156-.816406-.0625-.238281-.109375-.476563-.214844-.695313-.113281-.222656-.265625-.414062-.417969-.613281-.15625-.210937-.300781-.425781-.496094-.601562-.167968-.160157-.375-.257813-.574218-.382813-.246094-.160156-.488282-.3125-.769532-.417968-.0625-.023438-.109374-.070313-.175781-.09375l-80-24c-.101562-.0351568-.207031-.007813-.308593-.0351568-.273438-.0625-.546876-.08593745-.832032-.07812495-.289062-.0078125-.5625.01562495-.84375.07812495-.101562.0273438-.199218 0-.300781.0351568l-80 24c-.074219.03125-.121094.070312-.183594.09375-.28125.105468-.515625.265624-.769531.417968-.199219.125-.398438.222656-.578125.382813-.183594.175781-.335937.390625-.492187.601562-.144532.199219-.304688.390625-.410157.613281-.113281.21875-.160156.457032-.214843.695313-.074219.265625-.1445318.539063-.1601568.816406-.0078124.074219-.04687495.128907-.04687495.210938 0 .199219.08593755.375.10937475.566406.03125.191406 0 .382813.066407.574219.015624.058594.0625.082031.085937.128906.242187.722656.679687 1.320312 1.257813 1.792969.125.097656.230468.167969.359374.238281.625.410156 1.320313.699219 2.121094.699219h160c.796875 0 1.503906-.289063 2.125-.699219.128906-.078125.234375-.152344.359375-.238281.578125-.472657 1.019531-1.070313 1.257813-1.792969.023437-.046875.070312-.070312.089844-.128906.054687-.191406.023437-.375.054687-.574219zm0 0" fill="#ffce54"/><path d="m508.003906 423.949219c-2.210937 0-4-1.792969-4-4v-320c0-2.210938 1.789063-4 4-4 2.207032 0 4 1.789062 4 4v320c0 2.207031-1.792968 4-4 4zm0 0" fill="#ccd1d9"/><path d="m508.003906 103.949219c-.707031 0-1.417968-.179688-2.066406-.570313l-80-48c-1.886719-1.136718-2.503906-3.589844-1.367188-5.488281 1.144532-1.886719 3.589844-2.519531 5.496094-1.375l80 48c1.886719 1.136719 2.503906 3.59375 1.367188 5.488281-.75 1.246094-2.070313 1.945313-3.429688 1.945313zm0 0" fill="#ccd1d9"/><path d="m428.003906 55.949219c-2.210937 0-4-1.792969-4-4v-24.007813c0-2.210937 1.789063-4 4-4 2.207032 0 4 1.789063 4 4v24.007813c0 2.207031-1.792968 4-4 4zm0 0" fill="#ccd1d9"/><path d="m511.890625 28.515625c.023437-.191406.113281-.367187.113281-.566406 0-.082031-.042968-.144531-.050781-.210938-.015625-.277343-.085937-.542969-.160156-.816406-.0625-.238281-.109375-.476563-.214844-.695313-.113281-.222656-.265625-.414062-.417969-.613281-.15625-.210937-.300781-.425781-.496094-.601562-.167968-.160157-.375-.257813-.574218-.382813-.246094-.160156-.488282-.3125-.769532-.417968-.0625-.023438-.109374-.070313-.175781-.09375l-80-24c-.101562-.0351568-.199219-.007813-.300781-.0351568-.28125-.0625-.546875-.08593745-.839844-.07812495-.289062-.0078125-.5625.01562495-.832031.07812495-.105469.0273438-.210937 0-.3125.0351568l-80 24c-.074219.023437-.121094.070312-.175781.09375-.28125.105468-.511719.257812-.769532.417968-.199218.125-.40625.222656-.574218.382813-.1875.175781-.335938.390625-.496094.601562-.152344.199219-.304688.390625-.417969.613281-.113281.21875-.160156.457032-.214843.695313-.074219.265625-.144532.53125-.160157.816406-.007812.074219-.046875.128907-.046875.210938 0 .199219.085938.375.109375.566406.03125.191406 0 .382813.066407.574219.015624.058594.0625.082031.085937.128906.242187.722656.679687 1.320312 1.257813 1.792969.125.097656.230468.167969.359374.238281.625.410156 1.320313.699219 2.121094.699219h160c.796875 0 1.503906-.289063 2.125-.699219.128906-.078125.234375-.152344.359375-.238281.578125-.472657 1.019531-1.070313 1.257813-1.792969.023437-.046875.070312-.070312.089844-.128906.054687-.191406.023437-.375.054687-.574219zm0 0" fill="#ffce54"/><path d="m452.003906 423.949219c-.875 0-1.769531-.289063-2.507812-.875l-40-32c-1.71875-1.382813-2-3.894531-.621094-5.621094 1.382812-1.722656 3.886719-1.992187 5.621094-.625l40 32c1.722656 1.382813 2 3.894531.625 5.625-.792969.980469-1.949219 1.496094-3.117188 1.496094zm0 0" fill="#e6e9ed"/><path d="m372.003906 423.949219c-1.167968 0-2.328125-.515625-3.128906-1.503907-1.378906-1.730468-1.097656-4.242187.621094-5.625l40-32c1.730468-1.375 4.25-1.097656 5.625.625 1.375 1.726563 1.097656 4.238282-.625 5.621094l-40 32c-.726563.59375-1.621094.882813-2.492188.882813zm0 0" fill="#e6e9ed"/><g fill="#545c66"><path d="m228.003906 333.867188c-.890625 0-1.800781-.296876-2.53125-.902344-11.101562-9.097656-17.46875-22.585938-17.46875-37.015625 0-24.960938 18.757813-45.515625 43.621094-47.832031 1.496094-.097657 2.9375-.167969 4.378906-.167969 2.207032 0 4 1.789062 4 4 0 2.207031-1.792968 4-4 4-1.28125 0-2.554687.078125-3.761718.148437-20.601563 1.914063-36.238282 19.050782-36.238282 39.851563 0 12.023437 5.292969 23.253906 14.527344 30.832031 1.710938 1.398438 1.964844 3.917969.558594 5.621094-.785156.96875-1.929688 1.464844-3.085938 1.464844zm0 0"/><path d="m256.003906 343.949219c-2.210937 0-4-1.792969-4-4 0-2.210938 1.789063-4 4-4 22.054688 0 40-17.945313 40-40 0-12-5.304687-23.265625-14.546875-30.914063-1.703125-1.414062-1.941406-3.925781-.527343-5.632812 1.390624-1.710938 3.921874-1.949219 5.625-.535156 11.085937 9.175781 17.449218 22.6875 17.449218 37.082031 0 26.46875-21.53125 48-48 48zm0 0"/><path d="m268.003906 311.949219c-1.027344 0-2.050781-.394531-2.832031-1.167969l-24-24c-1.5625-1.5625-1.5625-4.097656 0-5.65625 1.558594-1.5625 4.09375-1.5625 5.652344 0l24 24c1.5625 1.558594 1.5625 4.09375 0 5.65625-.773438.773438-1.796875 1.167969-2.820313 1.167969zm0 0"/><path d="m244.003906 287.949219c-1.027344 0-2.050781-.394531-2.832031-1.167969-1.5625-1.5625-1.5625-4.097656 0-5.65625l56-56c1.558594-1.5625 4.09375-1.5625 5.652344 0 1.5625 1.558594 1.5625 4.09375 0 5.65625l-56 56c-.773438.773438-1.796875 1.167969-2.820313 1.167969zm0 0"/><path d="m212.003906 367.949219c-1.027344 0-2.050781-.394531-2.832031-1.167969-1.5625-1.5625-1.5625-4.097656 0-5.65625l56-56c1.558594-1.5625 4.09375-1.5625 5.652344 0 1.5625 1.558594 1.5625 4.09375 0 5.65625l-56 56c-.773438.773438-1.796875 1.167969-2.820313 1.167969zm0 0"/></g><path d="m396.003906 73.226562c9.917969-1.4375 16-3.199218 16-5.277343v96c0 2.078125-6.082031 3.839843-16 5.277343-6.875.953126-15.515625 1.753907-25.363281 2.234376-7.039063.328124-14.636719.488281-22.636719.488281-15.128906 0-29.042968-.640625-40-1.769531-14.640625-1.441407-24-3.753907-24-6.230469v-96c0 2.484375 9.359375 4.796875 24 6.230469 10.957032 1.128906 24.871094 1.769531 40 1.769531 19.125 0 36.230469-1.050781 48-2.722657zm0 0" fill="#ed5565"/><path d="m348.003906 73.949219c-14.84375 0-28.609375-.609375-39.800781-1.761719-13.839844-1.359375-19.90625-3.183594-21.761719-4.265625 4.207032-2.589844 26.898438-5.972656 61.550782-5.972656 34.683593 0 57.378906 3.390625 61.5625 5.980469-1.128907.648437-4.433594 1.953124-13.839844 3.320312-12.066406 1.714844-29.464844 2.699219-47.710938 2.699219zm0 0" fill="#e6e9ed"/><path d="m348.003906 63.949219c26.308594 0 45.78125 1.949219 55.0625 3.972656-1.878906.417969-4.359375.875-7.625 1.34375-11.984375 1.707031-29.269531 2.683594-47.4375 2.683594-14.785156 0-28.472656-.601563-39.609375-1.753907-7.113281-.695312-12.113281-1.511718-15.472656-2.273437 9.265625-2.023437 28.753906-3.972656 55.082031-3.972656m0-4c-35.363281 0-64 3.589843-64 8 0 2.484375 9.359375 4.796875 24 6.230469 10.957032 1.128906 24.871094 1.769531 40 1.769531 19.125 0 36.230469-1.050781 48-2.722657 9.917969-1.4375 16-3.199218 16-5.277343 0-4.410157-28.640625-8-64-8zm0 0" fill="#da4453"/><path d="m211.90625 73.226562c9.917969-1.4375 16-3.199218 16-5.277343v96c0 2.078125-6.082031 3.839843-16 5.277343-6.871094.953126-15.511719 1.753907-25.359375 2.234376-7.03125.328124-14.640625.488281-22.640625.488281-15.128906 0-29.03125-.640625-40-1.769531-14.640625-1.441407-24-3.753907-24-6.230469v-96c0 2.484375 9.359375 4.796875 24 6.230469 10.96875 1.128906 24.871094 1.769531 40 1.769531 19.128906 0 36.238281-1.050781 48-2.722657zm0 0" fill="#ed5565"/><path d="m163.90625 73.949219c-14.839844 0-28.609375-.609375-39.800781-1.761719-13.839844-1.359375-19.902344-3.183594-21.75-4.265625 4.207031-2.589844 26.894531-5.972656 61.542969-5.972656 34.6875 0 57.375 3.390625 61.558593 5.980469-1.128906.648437-4.421875 1.953124-13.839843 3.320312-12.054688 1.714844-29.445313 2.699219-47.710938 2.699219zm0 0" fill="#e6e9ed"/><path d="m163.90625 63.949219c26.3125 0 45.792969 1.949219 55.0625 3.972656-1.871094.417969-4.359375.875-7.621094 1.34375-11.976562 1.707031-29.265625 2.683594-47.441406 2.683594-14.785156 0-28.472656-.601563-39.609375-1.753907-7.109375-.695312-12.101563-1.511718-15.460937-2.273437 9.269531-2.023437 28.75-3.972656 55.070312-3.972656m0-4c-35.359375 0-64 3.589843-64 8 0 2.484375 9.359375 4.796875 24 6.230469 10.96875 1.128906 24.871094 1.769531 40 1.769531 19.128906 0 36.230469-1.050781 48-2.722657 9.917969-1.4375 16-3.199218 16-5.277343 0-4.410157-28.640625-8-64-8zm0 0" fill="#da4453"/></svg>