<svg height="507pt" viewBox="0 0 507 507.87649" width="507pt" xmlns="http://www.w3.org/2000/svg"><path d="m470.324219 100.175781c-1.558594 1.5625-4.09375 1.5625-5.65625 0l-10.6875-10.695312c-1.558594-1.558594-1.558594-4.09375 0-5.65625 1.558593-1.558594 4.097656-1.558594 5.65625 0l10.6875 10.6875c1.566406 1.578125 1.566406 4.097656 0 5.664062zm0 0" fill="#545c66"/><path d="m487.300781 83.210938c-1.558593 1.558593-4.097656 1.550781-5.65625 0l-9.894531-9.914063c-1.5625-1.558594-1.5625-4.085937 0-5.65625 1.558594-1.558594 4.101562-1.550781 5.65625 0l9.894531 9.914063c1.558594 1.558593 1.558594 4.09375 0 5.65625zm0 0" fill="#545c66"/><path d="m504.277344 66.242188c-1.570313 1.558593-4.097656 1.558593-5.664063 0l-9.046875-9.050782c-1.5625-1.566406-1.5625-4.09375 0-5.664062 1.558594-1.558594 4.09375-1.558594 5.652344 0l9.058594 9.058594c1.566406 1.558593 1.566406 4.09375 0 5.65625zm0 0" fill="#545c66"/><path d="m424.515625 54.367188c-1.558594 1.5625-4.09375 1.5625-5.65625 0l-10.75-10.757813c-1.5625-1.558594-1.5625-4.089844 0-5.65625 1.558594-1.558594 4.09375-1.558594 5.65625 0l10.75 10.75c1.570313 1.570313 1.570313 4.089844 0 5.664063zm0 0" fill="#545c66"/><path d="m440.628906 36.535156c-1.558594 1.5625-4.105468 1.554688-5.65625 0l-9.886718-9.902344c-1.570313-1.558593-1.570313-4.097656 0-5.65625 1.558593-1.558593 4.09375-1.558593 5.65625 0l9.886718 9.90625c1.558594 1.558594 1.558594 4.09375 0 5.652344zm0 0" fill="#545c66"/><path d="m456.75 18.703125c-1.5625 1.5625-4.097656 1.5625-5.65625 0l-9.042969-9.039063c-1.558593-1.558593-1.558593-4.09375 0-5.65625 1.5625-1.566406 4.097657-1.566406 5.65625 0l9.042969 9.042969c1.558594 1.558594 1.558594 4.085938 0 5.652344zm0 0" fill="#545c66"/><path d="m473.171875 97.351562-5.671875 5.65625c-1.558594 1.5625-4.09375 1.5625-5.65625 0-1.558594-1.566406-1.558594-4.09375 0-5.65625l5.679688-5.664062c1.5625-1.558594 4.097656-1.558594 5.65625.007812 1.542968 1.5625 1.542968 4.089844-.007813 5.65625zm0 0" fill="#656d78"/><path d="m490.132812 80.386719-5.648437 5.644531c-1.558594 1.5625-4.097656 1.5625-5.65625 0-1.558594-1.558594-1.558594-4.09375 0-5.652344l5.648437-5.648437c1.558594-1.5625 4.097657-1.5625 5.65625 0 1.558594 1.558593 1.558594 4.085937 0 5.65625zm0 0" fill="#656d78"/><path d="m507.109375 63.417969-5.65625 5.65625c-1.570313 1.558593-4.097656 1.558593-5.664063 0-1.558593-1.5625-1.558593-4.097657 0-5.65625l5.65625-5.65625c1.566407-1.5625 4.09375-1.5625 5.664063 0 1.558594 1.558593 1.558594 4.085937 0 5.65625zm0 0" fill="#656d78"/><path d="m230.308594 300.59375c-1.40625-5.257812-4.183594-10.183594-8.3125-14.3125-4.070313-4.054688-9.046875-6.902344-14.3125-8.3125-10.808594-3-22.910156-.167969-31.398438 8.3125-8.488281 8.480469-11.320312 20.601562-8.320312 31.390625 1.414062 5.273437 4.238281 10.25 8.320312 14.328125 4.128906 4.136719 9.0625 6.898438 14.3125 8.320312 10.808594 2.992188 22.910156.28125 31.398438-8.320312 8.585937-8.503906 11.304687-20.605469 8.3125-31.40625zm0 0" fill="#656d78"/><path d="m407.933594 83.386719c.054687-.074219.117187-.113281.175781-.175781 6.101563-6.210938 7.289063-14.976563 2.648437-19.617188l10.917969-12.058594 16.121094-17.820312 16.121094-17.832032 10.757812-11.867187s8.480469-2.832031 25.457031 14.160156c16.976563 16.960938 14.152344 25.449219 14.152344 25.449219l-11.878906 10.761719-17.824219 16.101562-29.875 27.046875c-4.636719-4.636718-13.40625-3.445312-19.613281 2.65625-.074219.066406-.121094.121094-.175781.167969l-152.234375 157.875-42.375 42.359375c-1.40625-5.257812-4.183594-10.183594-8.3125-14.3125-4.070313-4.054688-9.046875-6.902344-14.3125-8.3125l42.367187-42.367188zm0 0" fill="#965353"/><path d="m230.523438 403.679688c30.664062-67.894532 127-60.589844 47.816406-139.789063l-5.65625-5.65625-42.375 42.359375c2.992187 10.800781.273437 22.902344-8.3125 31.40625-8.488282 8.601562-20.589844 11.3125-31.398438 8.320312-5.25-1.421874-10.183594-4.183593-14.3125-8.320312-4.082031-4.078125-6.90625-9.054688-8.320312-14.328125-3-10.789063-.167969-22.902344 8.320312-31.390625 8.488282-8.488281 20.589844-11.3125 31.398438-8.3125l42.367187-42.367188-5.652343-5.65625c-79.203126-79.191406-71.832032 17.191407-139.785157 47.816407-67.878906 30.65625-165.417969 65.605469-52.542969 178.464843 112.902344 112.894532 147.863282 15.382813 178.453126-52.546874zm0 0" fill="#ffd2a6"/><g fill="#e6e9ed"><path d="m464.84375 26.503906c-1.574219 1.570313-4.128906 1.59375-5.6875.023438-1.558594-1.566406-1.601562-4.0625-.03125-5.621094l.054688-.058594c1.5625-1.558594 4.097656-1.566406 5.65625 0 1.570312 1.570313 1.5625 4.097656.007812 5.65625zm0 0"/><path d="m447.859375 43.472656c-1.558594 1.558594-4.117187 1.585938-5.679687.023438-1.558594-1.558594-1.589844-4.0625-.039063-5.613282l.0625-.066406c1.5625-1.558594 4.097656-1.558594 5.65625 0 1.5625 1.5625 1.570313 4.097656 0 5.65625zm0 0"/><path d="m430.890625 60.449219c-1.558594 1.566406-4.117187 1.589843-5.6875.03125-1.558594-1.558594-1.582031-4.0625-.03125-5.625l.066406-.0625c1.550781-1.550781 4.09375-1.558594 5.652344 0 1.5625 1.558593 1.570313 4.105469 0 5.65625zm0 0"/><path d="m487.46875 49.128906c-1.558594 1.558594-4.128906 1.59375-5.6875.023438-1.5625-1.558594-1.585938-4.0625-.03125-5.617188l.0625-.0625c1.550781-1.558594 4.097656-1.558594 5.65625 0s1.550781 4.105469 0 5.65625zm0 0"/><path d="m470.5 66.113281c-1.566406 1.558594-4.128906 1.582031-5.6875.023438-1.558594-1.558594-1.59375-4.0625-.03125-5.625l.0625-.0625c1.554688-1.550781 4.089844-1.558594 5.65625 0 1.558594 1.574219 1.550781 4.105469 0 5.664062zm0 0"/><path d="m453.523438 83.089844c-1.558594 1.558594-4.117188 1.582031-5.679688.023437-1.558594-1.558593-1.589844-4.0625-.039062-5.625l.0625-.054687c1.5625-1.5625 4.097656-1.5625 5.65625 0 1.5625 1.558594 1.5625 4.085937 0 5.65625zm0 0"/><path d="m475.988281 37.953125-251.160156 251.152344-45.710937 45.71875-50.679688 50.679687c-1.570312 1.5625-4.097656 1.5625-5.664062 0-1.5625-1.558594-1.5625-4.09375 0-5.65625l347.558593-347.550781c1.558594-1.558594 4.097657-1.558594 5.65625 0 1.558594 1.558594 1.558594 4.097656 0 5.65625zm0 0"/></g><path d="m416.589844 40.777344-5.65625 5.664062c-1.5625 1.558594-4.097656 1.558594-5.65625 0-1.5625-1.570312-1.5625-4.097656 0-5.664062l5.65625-5.65625c1.558594-1.558594 4.09375-1.558594 5.65625 0 1.574218 1.566406 1.574218 4.097656 0 5.65625zm0 0" fill="#656d78"/><path d="m433.566406 23.800781-5.65625 5.65625c-1.570312 1.558594-4.097656 1.558594-5.65625 0-1.570312-1.558593-1.570312-4.097656-.007812-5.65625l5.664062-5.65625c1.558594-1.558593 4.09375-1.558593 5.65625 0 1.558594 1.558594 1.566406 4.097657 0 5.65625zm0 0" fill="#656d78"/><path d="m450.53125 6.832031-5.65625 5.65625c-1.558594 1.5625-4.09375 1.5625-5.65625 0-1.558594-1.558593-1.558594-4.09375 0-5.65625l5.65625-5.664062c1.5625-1.558594 4.097656-1.558594 5.65625.007812 1.570312 1.570313 1.570312 4.089844 0 5.65625zm0 0" fill="#656d78"/><path d="m102.988281 371.386719 11.296875 22.605469 22.632813 11.320312zm0 0" fill="#965353"/><path d="m162.371094 408.136719c1.554687 1.558593 1.554687 4.105469 0 5.65625l-5.65625 5.664062c-1.550782 1.550781-4.101563 1.550781-5.65625 0l-62.230469-62.230469c-1.550781-1.554687-1.550781-4.105468 0-5.65625l5.65625-5.65625c1.558594-1.5625 4.105469-1.5625 5.65625 0zm0 0" fill="#965353"/></svg>