<svg height="496pt" viewBox="-12 0 496 496" width="496pt" xmlns="http://www.w3.org/2000/svg"><path d="m19.992188 264h432.015624v48h-432.015624zm0 0" fill="#545c66"/><path d="m404 264h-340v12c0 2.199219 1.800781 4 4 4h336c2.199219 0 4-1.800781 4-4v-12zm0 0" fill="#e6e9ed"/><path d="m408.382812 181.390625c-1.503906 0-2.941406-.855469-3.621093-2.3125l-66.234375-141.910156c-.933594-2.015625-.070313-4.390625 1.929687-5.328125 2.015625-.917969 4.382813-.078125 5.320313 1.9375l66.222656 141.902344c.9375 2.015624.070312 4.390624-1.929688 5.328124-.550781.257813-1.117187.382813-1.6875.382813zm0 0" fill="#353b44"/><path d="m236 136c-76 0-92 16-92 16l8 24v8h168v-8l8-24s-16-16-92-16zm0 0" fill="#353b44"/><path d="m28 176h416v88h-416zm0 0" fill="#434a54"/><path d="m460 468c0 2.199219-1.800781 4-4 4h-8c-2.199219 0-4-1.800781-4-4v-200c0-2.199219 1.800781-4 4-4h8c2.199219 0 4 1.800781 4 4zm0 0" fill="#656d78"/><path d="m28 468c0 2.199219-1.800781 4-4 4h-8c-2.199219 0-4-1.800781-4-4v-200c0-2.199219 1.800781-4 4-4h8c2.199219 0 4 1.800781 4 4zm0 0" fill="#656d78"/><path d="m272 216c0-4.417969-16.117188-8-36-8s-36 3.582031-36 8 16.117188 8 36 8 36-3.582031 36-8zm0 0" fill="#e6e9ed"/><path d="m412 16-384 160v-16l384-160zm0 0" fill="#434a54"/><path d="m284 452c0 2.199219-1.800781 4-4 4h-88c-2.199219 0-4-1.800781-4-4v-24c0-2.199219 1.800781-4 4-4h88c2.199219 0 4 1.800781 4 4zm0 0" fill="#545c66"/><path d="m208 312h16v112h-16zm0 0" fill="#434a54"/><path d="m248 312h16v112h-16zm0 0" fill="#434a54"/><path d="m248 312h16v112h-16zm0 0" fill="#434a54"/><path d="m208 312h16v112h-16zm0 0" fill="#434a54"/><path d="m208 448c4.425781 0 8-3.574219 8-8h-16c0 4.425781 3.574219 8 8 8zm0 0" fill="#ffce54"/><path d="m236 448c4.425781 0 8-3.574219 8-8h-16c0 4.425781 3.574219 8 8 8zm0 0" fill="#ffce54"/><path d="m264 448c4.425781 0 8-3.574219 8-8h-16c0 4.425781 3.574219 8 8 8zm0 0" fill="#ffce54"/><path d="m24 484c0 6.628906-5.371094 12-12 12s-12-5.371094-12-12 5.371094-12 12-12 12 5.371094 12 12zm0 0" fill="#e6e9ed"/><path d="m472 484c0 6.628906-5.371094 12-12 12s-12-5.371094-12-12 5.371094-12 12-12 12 5.371094 12 12zm0 0" fill="#e6e9ed"/><g fill="#ccd1d9"><path d="m396 268c2.207031 0 4-1.800781 4-4h-8c0 2.199219 1.792969 4 4 4zm0 0"/><path d="m380 268c2.207031 0 4-1.800781 4-4h-8c0 2.199219 1.792969 4 4 4zm0 0"/><path d="m364 268c2.207031 0 4-1.800781 4-4h-8c0 2.199219 1.792969 4 4 4zm0 0"/><path d="m348 268c2.207031 0 4-1.800781 4-4h-8c0 2.199219 1.792969 4 4 4zm0 0"/><path d="m332 268c2.207031 0 4-1.800781 4-4h-8c0 2.199219 1.792969 4 4 4zm0 0"/><path d="m316 268c2.207031 0 4-1.800781 4-4h-8c0 2.199219 1.792969 4 4 4zm0 0"/><path d="m300 268c2.207031 0 4-1.800781 4-4h-8c0 2.199219 1.792969 4 4 4zm0 0"/><path d="m284 268c2.207031 0 4-1.800781 4-4h-8c0 2.199219 1.792969 4 4 4zm0 0"/><path d="m268 268c2.207031 0 4-1.800781 4-4h-8c0 2.199219 1.792969 4 4 4zm0 0"/><path d="m252 268c2.207031 0 4-1.800781 4-4h-8c0 2.199219 1.792969 4 4 4zm0 0"/><path d="m236 268c2.207031 0 4-1.800781 4-4h-8c0 2.199219 1.792969 4 4 4zm0 0"/><path d="m220 268c2.207031 0 4-1.800781 4-4h-8c0 2.199219 1.792969 4 4 4zm0 0"/><path d="m204 268c2.207031 0 4-1.800781 4-4h-8c0 2.199219 1.792969 4 4 4zm0 0"/><path d="m188 268c2.207031 0 4-1.800781 4-4h-8c0 2.199219 1.792969 4 4 4zm0 0"/><path d="m172 268c2.207031 0 4-1.800781 4-4h-8c0 2.199219 1.792969 4 4 4zm0 0"/><path d="m156 268c2.207031 0 4-1.800781 4-4h-8c0 2.199219 1.792969 4 4 4zm0 0"/><path d="m140 268c2.207031 0 4-1.800781 4-4h-8c0 2.199219 1.792969 4 4 4zm0 0"/><path d="m124 268c2.207031 0 4-1.800781 4-4h-8c0 2.199219 1.792969 4 4 4zm0 0"/><path d="m108 268c2.207031 0 4-1.800781 4-4h-8c0 2.199219 1.792969 4 4 4zm0 0"/><path d="m92 268c2.207031 0 4-1.800781 4-4h-8c0 2.199219 1.792969 4 4 4zm0 0"/><path d="m76 268c2.207031 0 4-1.800781 4-4h-8c0 2.199219 1.792969 4 4 4zm0 0"/></g></svg>