<svg height="504pt" viewBox="-115 0 504 504" width="504pt" xmlns="http://www.w3.org/2000/svg"><path d="m141.183594 68h-6.398438c-2.210937 0-4-1.792969-4-4s1.789063-4 4-4h6.398438c2.207031 0 4 1.792969 4 4s-1.792969 4-4 4zm0 0" fill="#edab37"/><path d="m131.238281 448.015625c-.101562 2.183594-2 3.984375-4.199219 3.984375h-16.246093c-2.199219 0-3.90625-1.800781-3.800781-3.984375l8.800781-172.03125c.109375-2.183594 2-3.984375 4.199219-3.984375h16.207031c2.199219 0 3.90625 1.800781 3.800781 4zm0 0" fill="#edab37"/><path d="m227.425781 271.359375c-7.921875-7.917969-14.320312-16.078125-18.5625-23.359375-38.078125 88-37.855469 204-37.855469 204 0 2.214844-1.800781 4-4 4-2.199218 0-4-1.785156-4-4h-.105468c0-.078125-.117188-284-.117188-284h-8v-128c0-22.078125-17.921875-40-40-40-24 0-20.875 24.160156-56 24.160156v8c33.597656 6.328125 39.839844-15.753906 56-16.390625l-.007812.230469c13.199218 0 23.925781 10.71875 23.925781 23.921875 0 0-.558594 8.871094-1.519531 24.078125-2.160156 33.441406-6.230469 97.359375-10.320313 164-6 97.921875-12 201.921875-11.832031 224 0 28.71875 23.28125 52 52 52 28.710938 0 52-23.28125 52-52 0 0-.238281-100.488281 31.761719-162.078125-7.289063-4.25-15.449219-10.640625-23.367188-18.5625zm0 0" fill="#f6bb42"/><path d="m154.785156 168h8v284h-8zm0 0" fill="#edab37"/><g fill="#ffce54"><path d="m162.785156 428c0 6.628906-5.375 12-12 12-6.628906 0-12-5.371094-12-12s5.371094-12 12-12c6.625 0 12 5.371094 12 12zm0 0"/><path d="m162.785156 388c0 6.628906-5.375 12-12 12-6.628906 0-12-5.371094-12-12s5.371094-12 12-12c6.625 0 12 5.371094 12 12zm0 0"/><path d="m150.785156 336c6.640625 0 12 5.359375 12 12-.007812 3.359375-1.359375 6.3125-3.519531 8.488281-2.167969 2.160157-5.203125 3.511719-8.488281 3.511719-6.640625 0-12-5.359375-12-12 .007812-6.640625 5.359375-12 12.007812-12zm0 0"/><path d="m162.542969 305.59375c.160156.796875.242187 1.605469.242187 2.40625 0 6.640625-5.359375 12-12 12s-12-5.359375-12-12 5.359375-12 12-12c5.839844 0 10.640625 4.078125 11.757813 9.59375zm0 0"/><path d="m162.785156 268c0 6.628906-5.375 12-12 12-6.628906 0-12-5.371094-12-12s5.371094-12 12-12c6.625 0 12 5.371094 12 12zm0 0"/><path d="m162.785156 228c0 6.628906-5.375 12-12 12-6.628906 0-12-5.371094-12-12s5.371094-12 12-12c6.625 0 12 5.371094 12 12zm0 0"/><path d="m204.625 225.839844c6.320312-6.238282 26.71875 3.921875 45.511719 22.800781 18.878906 18.871094 29.039062 39.199219 22.808593 45.511719-3.679687 3.609375-12.089843 1.769531-22.167968-4.230469-7.28125-4.25-15.441406-10.640625-23.363282-18.5625-7.917968-7.917969-14.316406-16.078125-18.558593-23.359375-5.917969-10.078125-7.839844-18.488281-4.230469-22.160156zm0 0"/></g><path d="m34.785156 16-32.015625 8.167969v7.566406l32.414063 8.265625 23.601562-7.839844v-8zm0 0" fill="#656d78"/><path d="m250.769531 289.921875c3.199219-3.394531-3.457031-15.378906-14.976562-26.90625-11.511719-11.542969-23.527344-18.199219-26.921875-15 4.25 7.28125 10.632812 15.425781 18.554687 23.34375 7.910157 7.921875 16.0625 14.296875 23.34375 18.5625zm0 0" fill="#edab37"/><path d="m186.785156 400c8.878906 0 15.992188 7.199219 15.992188 16 .007812 8.871094-7.113282 16-15.992188 16-8.800781 0-16-7.128906-16-16 0-4.40625 1.839844-8.40625 4.71875-11.28125 2.878906-2.949219 6.878906-4.71875 11.28125-4.71875zm0 0" fill="#ffce54"/><path d="m170.785156 368c0-3.839844 1.359375-7.359375 3.679688-10.160156.320312-.40625.71875-.71875 1.039062-1.128906 2.878906-2.949219 6.878906-4.71875 11.28125-4.71875 8.878906 0 16 7.199218 16 16 0 8.800781-7.121094 16-16 16-8.800781.007812-16-7.191407-16-15.992188zm0 0" fill="#ffce54"/><path d="m26.785156 37.921875 8 1.972656v-23.894531l-8 2zm0 0" fill="#545c66"/><path d="m178.703125 354.28125c-1.160156.6875-2.253906 1.472656-3.199219 2.4375-.320312.410156-.71875.722656-1.039062 1.128906-.535156.640625-1.007813 1.34375-1.441406 2.0625l10.929687 10.921875c.78125.777344 1.808594 1.167969 2.832031 1.167969 1.023438 0 2.046875-.390625 2.832032-1.167969 1.558593-1.558593 1.558593-4.097656 0-5.65625zm0 0" fill="#f6bb42"/><path d="m178.703125 402.28125c-1.160156.6875-2.253906 1.472656-3.199219 2.4375-.320312.410156-.71875.722656-1.039062 1.128906-.535156.640625-1.007813 1.34375-1.441406 2.0625l10.929687 10.921875c.78125.777344 1.808594 1.167969 2.832031 1.167969 1.023438 0 2.046875-.390625 2.832032-1.167969 1.558593-1.558593 1.558593-4.097656 0-5.65625zm0 0" fill="#f6bb42"/><path d="m162.785156 452c0 2.210938-1.792968 4-4 4-2.210937 0-4-1.789062-4-4s1.789063-4 4-4c2.207032 0 4 1.789062 4 4zm0 0" fill="#edab37"/><path d="m162.785156 168c0 2.210938-1.792968 4-4 4-2.210937 0-4-1.789062-4-4s1.789063-4 4-4c2.207032 0 4 1.789062 4 4zm0 0" fill="#edab37"/><path d="m8 27.953125c0 2.207031-1.789062 4-4 4s-4-1.792969-4-4c0-2.210937 1.789062-4 4-4s4 1.789063 4 4zm0 0" fill="#656d78"/></svg>